<?xml version="1.0" encoding="UTF-8" standalone="no"?>
<svg width="35px" height="42px" viewBox="0 0 35 42" version="1.1" xmlns="http://www.w3.org/2000/svg" xmlns:xlink="http://www.w3.org/1999/xlink">
    <!-- Generator: Sketch 3.8.1 (29687) - http://www.bohemiancoding.com/sketch -->
    <title>ic_pin_drja</title>
    <desc>Created with Sketch.</desc>
    <defs></defs>
    <g id="Page-1" stroke="none" stroke-width="1" fill="none" fill-rule="evenodd">
        <g id="ic_pin_drja">
            <g id="Page-1">
                <g id="ic_pin_drja">
                    <g id="#017cbdff" fill="#0365C1">
                        <path d="M15.7242938,0.144350282 C19.4516949,-0.235310734 23.3016949,0.616949153 26.4951977,2.58644068 C31.8677966,5.80762712 35.2175141,12.1135593 34.7686441,18.3720339 C34.580791,22.1350282 33.0977401,25.8189266 30.6378531,28.6683616 C29.4177966,30.0782486 28.0612994,31.3576271 26.7502825,32.6805085 C23.7881356,35.650565 20.8141243,38.6048023 17.859887,41.5827684 C17.6898305,41.8101695 17.2725989,42.0672316 17.0629944,41.7350282 C13.0567797,37.7446328 9.05056497,33.7542373 5.05225989,29.7559322 C1.91610169,26.6217514 0.0553672316,22.2358757 0.0415254237,17.7946328 C-0.0514124294,13.9189266 1.24180791,10.0353107 3.60084746,6.96242938 C6.4759887,3.15 10.9686441,0.611016949 15.7242938,0.144350282 L15.7242938,0.144350282 L15.7242938,0.144350282 Z M13.4463277,3.56920904 C10.5059322,4.3759887 7.85225989,6.17146893 5.99745763,8.58785311 C4.11101695,11.0299435 3.01553672,14.1048023 3.08276836,17.2014124 C2.9799435,20.6124294 4.28898305,23.9937853 6.49971751,26.570339 C6.71327684,26.7918079 6.92090395,27.0172316 7.12853107,27.2446328 C8.27542373,28.4033898 9.6180791,29.3683616 11.0872881,30.0742938 C11.3562147,30.1968927 11.6231638,30.3214689 11.8881356,30.45 C12.8432203,30.8415254 13.8516949,31.0827684 14.8641243,31.2725989 C15.0282486,31.2963277 15.1923729,31.3220339 15.3564972,31.3477401 C15.5878531,29.8686441 15.7341808,28.359887 16.2581921,26.9460452 C15.8429379,26.5189266 15.1587571,26.180791 15.0855932,25.5381356 C15.3861582,24.929096 15.9694915,24.5355932 16.459887,24.0887006 C17.0115819,24.4881356 17.6562147,24.8776836 17.9251412,25.5322034 C17.859887,26.1649718 17.229096,26.5189266 16.819774,26.9341808 C17.3892655,28.3776836 17.5988701,29.9240113 17.8658192,31.4446328 C18.0081921,31.4426554 18.2949153,31.440678 18.4372881,31.4387006 C19.0700565,31.3338983 19.7305085,31.3062147 20.3435028,31.1262712 C25.3779661,30.0881356 29.6016949,26.0324859 30.9384181,21.0830508 C31.8420904,17.8341808 31.5573446,14.2610169 30.109887,11.2138418 C28.739548,8.28728814 26.3370056,5.86101695 23.4242938,4.46299435 C20.3533898,2.96610169 16.7347458,2.65169492 13.4463277,3.56920904 L13.4463277,3.56920904 L13.4463277,3.56920904 Z" id="Shape"></path>
                        <path d="M11.8564972,14.3124294 C12.240113,14.1562147 12.6257062,13.990113 13.0389831,13.9288136 C14.2076271,13.7725989 15.5977401,13.6974576 16.420339,14.7118644 C16.9166667,14.379661 17.3833333,13.9367232 17.9963277,13.8437853 C19.0206215,13.6875706 20.0567797,13.8853107 21.039548,14.1661017 C21.049435,14.2629944 21.0652542,14.4567797 21.0751412,14.5536723 C20.6915254,15.1627119 20.5570621,15.8706215 20.309887,16.5350282 C19.8076271,17.3338983 18.6607345,17.3655367 17.8440678,17.1282486 C17.0610169,16.8435028 17.1480226,15.8429379 16.6240113,15.320904 C15.9971751,15.2556497 16.0347458,16.0327684 15.7935028,16.4282486 C15.449435,17.4288136 14.1265537,17.4050847 13.290113,17.1460452 C12.210452,16.7545198 12.3785311,15.3940678 11.8446328,14.5596045 L11.8564972,14.3124294 L11.8564972,14.3124294 L11.8564972,14.3124294 Z M13.5175141,14.1344633 C13.1615819,14.1858757 12.7463277,14.280791 12.5663842,14.630791 C12.4754237,15.2081921 12.4754237,15.8310734 12.6850282,16.3827684 C13.1141243,17.2112994 14.2234463,17.2389831 15.0144068,17.0274011 C15.5463277,16.8850282 15.7262712,16.3056497 15.8251412,15.8271186 C15.9062147,15.3624294 16.0446328,14.7652542 15.6115819,14.4251412 C15.010452,13.9960452 14.2135593,14.0870056 13.5175141,14.1344633 L13.5175141,14.1344633 L13.5175141,14.1344633 Z M17.4525424,14.2887006 C16.9384181,14.5319209 16.9898305,15.1686441 17.0728814,15.6392655 C17.1480226,16.2028249 17.3774011,16.8771186 18.0002825,17.0254237 C18.6765537,17.1559322 19.4872881,17.1539548 20.0231638,16.6615819 C20.4542373,16.149435 20.4463277,15.4276836 20.3988701,14.7968927 C20.3553672,14.2847458 19.7898305,14.1364407 19.3646893,14.0949153 C18.7299435,14.0454802 18.0378531,13.9920904 17.4525424,14.2887006 L17.4525424,14.2887006 L17.4525424,14.2887006 Z" id="Shape"></path>
                    </g>
                    <g id="#f6f6f6ff" transform="translate(2.966102, 2.966102)" fill="#F6F6F6">
                        <path d="M10.480226,0.603107345 C13.7686441,-0.31440678 17.3872881,0 20.4581921,1.49689266 C23.370904,2.89491525 25.7734463,5.32118644 27.1437853,8.24774011 C28.5912429,11.2949153 28.8759887,14.8680791 27.9723164,18.1169492 C26.6355932,23.0663842 22.4118644,27.1220339 17.3774011,28.1601695 C17.9884181,27.0706215 18.6646893,26.0186441 19.2618644,24.9211864 C18.7477401,24.490113 18.2316384,24.0610169 17.7372881,23.6101695 C18.2514124,23.3194915 18.7615819,23.0228814 19.2677966,22.7163842 C19.0937853,21.4172316 18.6587571,20.1793785 18.2612994,18.9355932 C19.0245763,19.4734463 19.7206215,20.1596045 20.0824859,21.0355932 C20.4403955,21.9471751 20.5570621,22.9338983 20.5788136,23.9067797 C20.1002825,24.1420904 19.5822034,24.4980226 19.5881356,25.0971751 C19.4714689,26.1432203 20.9782486,26.8036723 21.6525424,25.9751412 C22.2872881,25.3483051 21.9353107,24.3398305 21.2016949,23.9720339 C21.2471751,22.3525424 21.059322,20.5036723 19.7997175,19.3350282 C19.2836158,19.0562147 18.6765537,19.0127119 18.120904,18.8387006 L18.0576271,18.8129944 C18.0853107,17.1025424 18.0675141,15.3920904 18.0576271,13.6816384 C18.4926554,13.7409605 18.9850282,13.9683616 19.3805085,13.669774 C19.910452,13.3019774 20.2782486,12.5367232 19.9341808,11.9276836 C19.7305085,11.480791 19.2242938,11.3581921 18.8129944,11.190113 C19.2717514,9.0920904 19.7720339,6.87542373 19.2163842,4.74576271 C19.0186441,3.88361582 18.3403955,3.25677966 17.529661,2.96016949 C17.5375706,2.7980226 17.5533898,2.47768362 17.5612994,2.31553672 C16.8929379,2.17711864 16.2107345,2.22062147 15.5720339,2.45988701 C15.5285311,2.19096045 15.4889831,1.9240113 15.4514124,1.65508475 C14.5299435,1.54237288 13.6579096,1.90028249 12.9539548,2.47768362 C12.8926554,2.21073446 12.8313559,1.94180791 12.7700565,1.67485876 C11.1861582,1.81129944 9.69519774,2.74463277 8.9319209,4.14858757 C8.81525424,3.97259887 8.69661017,3.79661017 8.5799435,3.62259887 C7.18983051,5.88276836 7.62485876,8.71638418 8.16864407,11.1742938 C7.80282486,11.3661017 7.33022599,11.4867232 7.15621469,11.9059322 C6.84576271,12.5189266 7.13248588,13.2920904 7.66638418,13.6776836 C8.0420904,13.9624294 8.51073446,13.7508475 8.9220339,13.6915254 C8.9240113,15.059887 8.91214689,16.4282486 8.9319209,17.7966102 C8.9180791,18.1644068 8.96355932,18.5855932 8.67288136,18.8723164 L8.65706215,18.8960452 C8.63135593,18.8861582 8.5799435,18.8663842 8.55423729,18.8564972 C8.15480226,18.9652542 7.73361582,19.0285311 7.3579096,19.2144068 C6.98418079,19.4437853 6.84971751,19.8926554 6.65,20.2584746 C5.93418079,20.349435 5.19463277,20.5590395 4.69237288,21.1127119 C4.0200565,21.7771186 3.73926554,22.7084746 3.53361582,23.6042373 C1.32288136,21.0276836 0.0138418079,17.6463277 0.116666667,14.2353107 C0.0494350282,11.1387006 1.14491525,8.06384181 3.03135593,5.62175141 C4.88615819,3.20536723 7.53983051,1.40988701 10.480226,0.603107345 L10.480226,0.603107345 L10.480226,0.603107345 Z" id="Shape"></path>
                        <path d="M11.0516949,16.5706215 C12.6059322,16.849435 14.1977401,16.9146893 15.7420904,16.5271186 C15.5759887,16.8257062 15.4474576,17.2251412 15.059887,17.2943503 C13.9881356,17.5870056 12.8274011,17.5672316 11.7556497,17.2844633 C11.3898305,17.2112994 11.2533898,16.8355932 11.0516949,16.5706215 L11.0516949,16.5706215 L11.0516949,16.5706215 Z" id="Shape"></path>
                        <path d="M7.48446328,20.3217514 C7.68615819,19.7384181 8.02627119,19.1610169 8.65310734,18.9632768 C8.63728814,19.5387006 8.42768362,20.0805085 8.25169492,20.620339 C7.99661017,20.5155367 7.73954802,20.4206215 7.48446328,20.3217514 L7.48446328,20.3217514 L7.48446328,20.3217514 Z" id="Shape"></path>
                        <path d="M9.07231638,19.2124294 C10.0966102,20.3138418 11.5618644,20.9525424 13.0607345,20.990113 C14.8403955,21.1146893 16.7387006,20.6025424 17.9824859,19.269774 C17.3971751,22.3980226 16.5725989,25.4867232 15.4711864,28.4725989 C15.3288136,28.4745763 15.0420904,28.4765537 14.8997175,28.4785311 C14.6327684,26.9579096 14.4231638,25.4115819 13.8536723,23.9680791 C14.2629944,23.5528249 14.8937853,23.1988701 14.9590395,22.5661017 C14.690113,21.9115819 14.0454802,21.5220339 13.4937853,21.1225989 C13.0033898,21.5694915 12.4200565,21.9629944 12.1194915,22.5720339 C12.1926554,23.2146893 12.8768362,23.5528249 13.2920904,23.9799435 C12.7680791,25.3937853 12.6217514,26.9025424 12.3903955,28.3816384 C12.2262712,28.3559322 12.0621469,28.330226 11.8980226,28.3064972 C11.249435,26.6612994 10.6344633,25.0022599 10.1084746,23.3135593 C9.98983051,22.8745763 9.84152542,22.4435028 9.68926554,22.0144068 C9.46977401,21.0830508 9.19096045,20.1655367 9.07231638,19.2124294 L9.07231638,19.2124294 L9.07231638,19.2124294 Z" id="Shape"></path>
                        <path d="M5.45169492,21.4725989 C6.22288136,20.8932203 7.29858757,20.9663842 8.11920904,21.399435 C8.03615819,21.8384181 7.95706215,22.2774011 7.8799435,22.7163842 C8.43163842,22.9991525 8.95367232,23.3353107 9.41638418,23.7485876 C8.91016949,24.1045198 8.43954802,24.5079096 8.00451977,24.9468927 C8.29717514,25.4254237 8.5819209,25.9059322 8.85875706,26.3943503 C8.62344633,26.6415254 8.37231638,26.8748588 8.12118644,27.1081921 C6.6519774,26.4022599 5.30932203,25.4372881 4.16242938,24.2785311 C4.28898305,23.2502825 4.57372881,22.1211864 5.45169492,21.4725989 L5.45169492,21.4725989 L5.45169492,21.4725989 Z" id="Shape"></path>
                    </g>
                    <g id="#5d3814ff" transform="translate(10.480226, 4.548023)" fill="#5D3814">
                        <path d="M1.41779661,2.56666667 C2.18107345,1.16271186 3.6720339,0.229378531 5.2559322,0.0929378531 C5.31723164,0.359887006 5.37853107,0.628813559 5.43983051,0.895762712 C6.14378531,0.318361582 7.01581921,-0.0395480226 7.93728814,0.0731638418 C7.97485876,0.342090395 8.01440678,0.609039548 8.0579096,0.877966102 C8.69661017,0.638700565 9.37881356,0.59519774 10.0471751,0.733615819 C10.0392655,0.895762712 10.0234463,1.21610169 10.0155367,1.37824859 C10.8262712,1.67485876 11.5045198,2.30169492 11.7022599,3.16384181 C12.2579096,5.29350282 11.7576271,7.51016949 11.2988701,9.60819209 C11.0635593,9.74265537 10.830226,9.87514124 10.5949153,10.0056497 C10.5850282,9.90875706 10.569209,9.71497175 10.559322,9.6180791 C10.3813559,8.4039548 10.2805085,7.15423729 9.80988701,6.00734463 C9.6220339,5.54858757 9.2740113,5.04237288 8.70847458,5.09180791 C6.60056497,5.05423729 4.50451977,5.49519774 2.39463277,5.31129944 C1.60169492,6.6559322 1.58785311,8.26158192 1.37627119,9.76440678 L1.36440678,10.0115819 C1.12711864,9.87118644 0.889830508,9.73079096 0.654519774,9.59237288 C0.110734463,7.13446328 -0.324293785,4.30084746 1.06581921,2.04067797 C1.18248588,2.21468927 1.30112994,2.39067797 1.41779661,2.56666667 L1.41779661,2.56666667 L1.41779661,2.56666667 Z" id="Shape"></path>
                        <path d="M2.2740113,8.35254237 C2.37485876,7.59124294 3.29435028,7.36186441 3.94293785,7.3440678 C4.28898305,7.31638418 4.30677966,7.7079096 4.40960452,7.93333333 C3.71751412,8.16073446 2.98983051,8.23389831 2.2740113,8.35254237 L2.2740113,8.35254237 L2.2740113,8.35254237 Z" id="Shape"></path>
                        <path d="M7.78502825,8.01440678 C7.39350282,7.85028249 7.75141243,7.23135593 8.10734463,7.33813559 C8.73813559,7.39943503 9.58644068,7.61101695 9.71694915,8.34067797 C9.07231638,8.24774011 8.41581921,8.18248588 7.78502825,8.01440678 L7.78502825,8.01440678 L7.78502825,8.01440678 Z" id="Shape"></path>
                        <path d="M3.43079096,10.529661 C3.89548023,10.0669492 4.60338983,10.8144068 4.14858757,11.2612994 C3.69378531,11.7180791 2.94632768,10.9864407 3.43079096,10.529661 L3.43079096,10.529661 L3.43079096,10.529661 Z" id="Shape"></path>
                        <path d="M7.77909605,10.5533898 C8.00056497,10.3259887 8.40988701,10.3358757 8.5799435,10.6245763 C8.81129944,10.9409605 8.52259887,11.4531073 8.12711864,11.4016949 C7.70988701,11.3957627 7.50423729,10.85 7.77909605,10.5533898 L7.77909605,10.5533898 L7.77909605,10.5533898 Z" id="Shape"></path>
                    </g>
                    <g id="#f1b085ff" transform="translate(9.887006, 9.491525)" fill="#F1B085">
                        <path d="M2.98785311,0.36779661 C5.09774011,0.551694915 7.19378531,0.110734463 9.30169492,0.148305085 C9.86723164,0.0988700565 10.2152542,0.605084746 10.4031073,1.06384181 C10.8737288,2.21073446 10.9745763,3.46045198 11.1525424,4.67457627 C10.169774,4.39378531 9.13361582,4.1960452 8.10932203,4.35225989 C7.49632768,4.44519774 7.02966102,4.88813559 6.53333333,5.22033898 C5.71073446,4.2059322 4.32062147,4.28107345 3.1519774,4.43728814 C2.73870056,4.49858757 2.35310734,4.66468927 1.96949153,4.82090395 C2.18107345,3.3180791 2.19491525,1.71242938 2.98785311,0.36779661 L2.98785311,0.36779661 L2.98785311,0.36779661 Z M2.86723164,3.40903955 C3.58305085,3.29039548 4.31073446,3.21723164 5.00282486,2.98983051 C4.9,2.76440678 4.88220339,2.37288136 4.53615819,2.40056497 C3.88757062,2.41836158 2.9680791,2.64774011 2.86723164,3.40903955 L2.86723164,3.40903955 L2.86723164,3.40903955 Z M8.37824859,3.07090395 C9.00903955,3.23898305 9.66553672,3.30423729 10.3101695,3.39717514 C10.179661,2.66751412 9.33135593,2.4559322 8.70056497,2.39463277 C8.34463277,2.28785311 7.98672316,2.90677966 8.37824859,3.07090395 L8.37824859,3.07090395 L8.37824859,3.07090395 Z" id="Shape"></path>
                        <path d="M3.63050847,4.64293785 C4.32655367,4.59548023 5.12344633,4.50451977 5.72457627,4.93361582 C6.15762712,5.27372881 6.01920904,5.87090395 5.93813559,6.33559322 C5.83926554,6.81412429 5.65932203,7.39350282 5.12740113,7.53587571 C4.33644068,7.74745763 3.22711864,7.71977401 2.7980226,6.89124294 C2.58841808,6.33954802 2.58841808,5.71666667 2.67937853,5.13926554 C2.85932203,4.78926554 3.27457627,4.69435028 3.63050847,4.64293785 L3.63050847,4.64293785 L3.63050847,4.64293785 Z M4.0240113,5.58615819 C3.53954802,6.04293785 4.28700565,6.77457627 4.74180791,6.31779661 C5.19661017,5.87090395 4.48870056,5.12344633 4.0240113,5.58615819 L4.0240113,5.58615819 L4.0240113,5.58615819 Z" id="Shape"></path>
                        <path d="M0.235310734,5.38050847 C0.409322034,4.96129944 0.881920904,4.84067797 1.24774011,4.64887006 C1.48305085,4.78728814 1.72033898,4.92768362 1.95762712,5.0680791 C2.49152542,5.90254237 2.32344633,7.26299435 3.40310734,7.65451977 C4.23954802,7.91355932 5.56242938,7.93728814 5.90649718,6.93672316 C6.14774011,6.54124294 6.11016949,5.76412429 6.73700565,5.82937853 C7.26101695,6.35141243 7.1740113,7.3519774 7.95706215,7.63672316 C8.77372881,7.8740113 9.92062147,7.84237288 10.4228814,7.04350282 C10.6700565,6.37909605 10.8045198,5.67118644 11.1881356,5.06214689 C11.4234463,4.93163842 11.6567797,4.79915254 11.8920904,4.66468927 C12.3033898,4.83276836 12.8096045,4.95536723 13.0132768,5.40225989 C13.3573446,6.01129944 12.989548,6.77655367 12.4596045,7.14435028 C12.0641243,7.44293785 11.5717514,7.21553672 11.1367232,7.15621469 C11.1466102,8.86666667 11.1644068,10.5771186 11.1367232,12.2875706 C11.1189266,12.4022599 11.0813559,12.629661 11.0615819,12.7443503 C9.81779661,14.0771186 7.91949153,14.5892655 6.13983051,14.4646893 C4.64096045,14.4271186 3.17570621,13.7884181 2.15141243,12.6870056 L2.1019774,12.5742938 L2.05649718,12.4734463 L2.01892655,12.2836158 L1.7519774,12.3468927 C2.04265537,12.0601695 1.99717514,11.6389831 2.01101695,11.2711864 C1.99124294,9.90282486 2.00310734,8.53446328 2.00112994,7.16610169 C1.58983051,7.22542373 1.12118644,7.43700565 0.745480226,7.15225989 C0.211581921,6.76666667 -0.0751412429,5.99350282 0.235310734,5.38050847 L0.235310734,5.38050847 L0.235310734,5.38050847 Z M3.64632768,9.82570621 C3.78079096,10.5573446 4.17824859,11.209887 4.76751412,11.6627119 C5.84322034,12.3053672 7.25310734,12.2935028 8.29124294,11.5757062 C8.81920904,11.1228814 9.16327684,10.509887 9.30367232,9.83163842 C9.14152542,9.88700565 8.98135593,9.94435028 8.82118644,10.0016949 C7.27683616,10.3892655 5.68502825,10.3240113 4.13079096,10.0451977 C4.01016949,9.98983051 3.76892655,9.88107345 3.64632768,9.82570621 L3.64632768,9.82570621 L3.64632768,9.82570621 Z" id="Shape"></path>
                        <path d="M7.56553672,4.79717514 C8.15084746,4.50056497 8.84293785,4.5539548 9.47768362,4.60338983 C9.90282486,4.64491525 10.4683616,4.79322034 10.5118644,5.30536723 C10.559322,5.93615819 10.5672316,6.6579096 10.1361582,7.1700565 C9.60028249,7.66242938 8.78954802,7.66440678 8.11327684,7.53389831 C7.49039548,7.38559322 7.26101695,6.71129944 7.18587571,6.14774011 C7.10282486,5.67711864 7.05141243,5.04039548 7.56553672,4.79717514 L7.56553672,4.79717514 L7.56553672,4.79717514 Z M8.37231638,5.60988701 C8.09745763,5.90649718 8.30310734,6.45225989 8.72033898,6.45819209 C9.11581921,6.50960452 9.40451977,5.99745763 9.17316384,5.68107345 C9.00310734,5.39237288 8.59378531,5.38248588 8.37231638,5.60988701 L8.37231638,5.60988701 L8.37231638,5.60988701 Z" id="Shape"></path>
                    </g>
                    <g id="#000000ff" transform="translate(6.327684, 19.180791)" fill="#000000">
                        <path d="M7.20564972,0.136440678 C7.32824859,0.19180791 7.56949153,0.300564972 7.69011299,0.355932203 C7.89180791,0.620903955 8.02824859,0.996610169 8.3940678,1.06977401 C9.46581921,1.35254237 10.6265537,1.37231638 11.6983051,1.07966102 C12.0858757,1.01045198 12.2144068,0.611016949 12.3805085,0.312429379 C12.540678,0.255084746 12.7008475,0.197740113 12.8629944,0.142372881 C12.7225989,0.820621469 12.3785311,1.43361582 11.850565,1.88644068 C11.540113,1.75988701 11.229661,1.59180791 10.8836158,1.60960452 C10.0234463,1.65508475 9.07231638,1.41779661 8.32683616,1.97344633 C7.73757062,1.52062147 7.34011299,0.868079096 7.20564972,0.136440678 L7.20564972,0.136440678 L7.20564972,0.136440678 Z" id="Shape"></path>
                        <path d="M5.19265537,2.64180791 C5.21836158,2.65169492 5.26977401,2.67146893 5.29548023,2.68135593 L5.29152542,2.74858757 C4.66468927,2.94632768 4.32457627,3.52372881 4.12288136,4.10706215 C4.3779661,4.2059322 4.63502825,4.30084746 4.89011299,4.40564972 C5.49915254,4.71610169 5.9519774,5.2420904 6.32768362,5.79971751 C6.4799435,6.22881356 6.62824859,6.65988701 6.74689266,7.09887006 C6.94858757,8.5700565 6.67372881,10.2053672 5.56045198,11.269209 C5.29548023,11.140678 5.02853107,11.0161017 4.75960452,10.8935028 C5.01073446,10.6601695 5.26186441,10.4268362 5.49717514,10.179661 C6.45423729,8.62146893 6.33757062,6.2960452 4.75762712,5.18474576 C3.93700565,4.75169492 2.86129944,4.67853107 2.09011299,5.2579096 C1.21214689,5.90649718 0.92740113,7.03559322 0.800847458,8.06384181 C0.593220339,7.83644068 0.38559322,7.61101695 0.172033898,7.38954802 C0.377683616,6.49378531 0.658474576,5.56242938 1.33079096,4.8980226 C1.83305085,4.34435028 2.57259887,4.13474576 3.28841808,4.04378531 C3.48813559,3.6779661 3.62259887,3.22909605 3.99632768,2.99971751 C4.3720339,2.81384181 4.79322034,2.75056497 5.19265537,2.64180791 L5.19265537,2.64180791 L5.19265537,2.64180791 Z" id="Shape"></path>
                        <path d="M14.759322,2.6240113 C15.3149718,2.7980226 15.9220339,2.84152542 16.4381356,3.12033898 C17.6977401,4.28898305 17.8855932,6.13785311 17.840113,7.75734463 C18.5737288,8.12514124 18.9257062,9.13361582 18.2909605,9.76045198 C17.6166667,10.5889831 16.109887,9.92853107 16.2265537,8.88248588 C16.2206215,8.28333333 16.7387006,7.92740113 17.2172316,7.6920904 C17.1954802,6.71920904 17.0788136,5.73248588 16.720904,4.82090395 C16.3590395,3.94491525 15.6629944,3.25875706 14.8997175,2.72090395 C14.8661017,2.69717514 14.7949153,2.64774011 14.759322,2.6240113 L14.759322,2.6240113 L14.759322,2.6240113 Z M17.0610169,8.36242938 C16.7327684,8.5700565 16.6714689,9.08022599 16.9562147,9.34915254 C17.2627119,9.71299435 17.9310734,9.54887006 18.0358757,9.08418079 C18.2454802,8.54039548 17.5217514,8.01242938 17.0610169,8.36242938 L17.0610169,8.36242938 L17.0610169,8.36242938 Z" id="Shape"></path>
                    </g>
                    <g id="#af232cff" transform="translate(14.632768, 20.762712)" fill="#AF232C">
                        <path d="M0.0217514124,0.391525424 C0.767231638,-0.164124294 1.71836158,0.0731638418 2.57853107,0.0276836158 C2.92457627,0.00988700565 3.23502825,0.177966102 3.54548023,0.304519774 C2.50734463,1.02231638 1.09745763,1.03418079 0.0217514124,0.391525424 L0.0217514124,0.391525424 L0.0217514124,0.391525424 Z" id="Shape"></path>
                    </g>
                    <g id="#b5d2dfff" transform="translate(10.677966, 21.751412)" fill="#B5D2DF">
                        <path d="M0.94519774,0.110734463 L0.961016949,0.0870056497 L1.2279661,0.0237288136 L1.26553672,0.213559322 L1.31101695,0.31440678 L1.36045198,0.427118644 C1.47909605,1.38022599 1.7579096,2.29774011 1.97740113,3.22909605 C1.60169492,2.67146893 1.14887006,2.14548023 0.539830508,1.83502825 C0.715819209,1.29519774 0.925423729,0.753389831 0.941242938,0.177966102 L0.94519774,0.110734463 L0.94519774,0.110734463 L0.94519774,0.110734463 Z" id="Shape"></path>
                        <path d="M10.3457627,0.0276836158 L10.4090395,0.0533898305 C10.4446328,0.0771186441 10.5158192,0.126553672 10.549435,0.150282486 C10.9468927,1.3940678 11.3819209,2.6319209 11.5559322,3.93107345 C11.0497175,4.23757062 10.539548,4.53418079 10.0254237,4.82485876 C10.519774,5.27570621 11.0358757,5.70480226 11.55,6.13587571 C10.9528249,7.23333333 10.2765537,8.28531073 9.66553672,9.37485876 C9.05254237,9.55480226 8.3920904,9.58248588 7.75932203,9.68728814 C8.86073446,6.70141243 9.68531073,3.61271186 10.2706215,0.484463277 C10.2903955,0.369774011 10.3279661,0.142372881 10.3457627,0.0276836158 L10.3457627,0.0276836158 L10.3457627,0.0276836158 Z" id="Shape"></path>
                        <path d="M0.407344633,2.61412429 C1.98728814,3.72542373 2.1039548,6.05084746 1.14689266,7.60903955 C0.870056497,7.12062147 0.585310734,6.64011299 0.292655367,6.16158192 C0.727683616,5.72259887 1.19830508,5.31920904 1.70451977,4.96327684 C1.24180791,4.55 0.719774011,4.21384181 0.168079096,3.93107345 C0.24519774,3.4920904 0.324293785,3.05310734 0.407344633,2.61412429 L0.407344633,2.61412429 L0.407344633,2.61412429 Z" id="Shape"></path>
                        <path d="M2.39661017,4.52824859 C2.92259887,6.21694915 3.53757062,7.8759887 4.18615819,9.52118644 C3.17372881,9.33135593 2.16525424,9.09011299 1.21016949,8.69858757 C2.32344633,7.63474576 2.59830508,5.99943503 2.39661017,4.52824859 L2.39661017,4.52824859 L2.39661017,4.52824859 Z" id="Shape"></path>
                    </g>
                    <g id="#a6a7a7ff" transform="translate(22.937853, 27.288136)" fill="#A6A7A7">
                        <path d="M0.450847458,0.255084746 C0.911581921,-0.0949152542 1.63531073,0.433050847 1.42570621,0.976836158 C1.32090395,1.44152542 0.652542373,1.60564972 0.346045198,1.24180791 C0.061299435,0.972881356 0.12259887,0.462711864 0.450847458,0.255084746 L0.450847458,0.255084746 L0.450847458,0.255084746 Z" id="Shape"></path>
                    </g>
                </g>
            </g>
        </g>
    </g>
</svg>